# xmcd
#
# Track frame offsets: 
#        150
#        11952
#        28822
#
# Disc length: 709 seconds
#
# Revision: 0
# Processed by: cddbd v1.5.2PL0 Copyright (c) Steve Scherf et al.
# Submitted via: ExactAudioCopy v0.99pb5
#
DISCID=2002c303
DTITLE=Stalking Horse - Half In Shadow
DYEAR=1997
DGENRE=Rock
TTITLE0=Fear
TTITLE1=Half In Shadow
TTITLE2=On The Wall
EXTD=
EXTT0=
EXTT1=
EXTT2=
PLAYORDER=
